<svg width="22" height="22" viewBox="0 0 22 22" fill="none" xmlns="http://www.w3.org/2000/svg">
<path fill-rule="evenodd" clip-rule="evenodd" d="M6.04477 9.70642C5.78733 8.41921 7.24617 7.73269 8.19012 7.13199C8.70501 6.78873 8.79082 6.27385 8.61919 5.75896C8.10431 4.30012 7.16035 3.01291 6.55965 1.55407C6.47384 1.29662 6.2164 1.12499 5.95895 1.03918C3.47034 0.781737 1.66824 2.66965 1.15336 4.98664C-0.3913 11.8518 10.078 22.3211 17.029 20.8623C19.346 20.3474 21.2339 18.5453 20.9764 16.0567C20.8906 15.7992 20.719 15.5418 20.4616 15.456C19.0027 14.8553 17.7155 13.9113 16.2567 13.3964C15.7418 13.2248 15.2269 13.3106 14.8836 13.8255C14.2829 14.7695 13.5964 16.2283 12.3092 15.9709C10.078 15.5418 6.38802 11.8518 6.04477 9.70642Z" stroke="#003594"/>
</svg>
