<svg width="20" height="23" viewBox="0 0 20 23" fill="none" xmlns="http://www.w3.org/2000/svg">
<path d="M9.60513 11.6096C12.6647 11.6096 15.147 9.12732 15.147 6.06774C15.147 3.00783 12.6644 0.554492 9.60513 0.554492C6.54556 0.554492 4.06328 3.03677 4.06328 6.09635C4.06328 9.15626 6.5459 11.6096 9.60513 11.6096ZM9.60513 1.71282C12.0088 1.71282 13.9601 3.66407 13.9601 6.06774C13.9601 8.47142 12.0088 10.4227 9.60513 10.4227C7.20146 10.4227 5.25021 8.47142 5.25021 6.06774C5.25021 3.66407 7.20146 1.71282 9.60513 1.71282Z" fill="#003594" stroke="#003594" stroke-width="0.1"/>
<path d="M1.35735 22.2283C1.35735 20.2671 2.06788 18.3905 3.31918 16.8831C4.54166 15.4618 6.19036 14.4953 8.03816 14.1255C8.5509 14.0401 9.09122 13.9833 9.60234 13.9833C14.1513 13.9833 17.8473 17.6794 17.8473 22.2283V22.2783H17.8973H18.9843H19.0343V22.2283C19.0343 17.052 14.8071 12.825 9.60234 12.825C8.99862 12.825 8.39472 12.8825 7.81931 12.9976C5.71999 13.4002 3.82225 14.5217 2.44213 16.1319L2.44194 16.1321C1.00423 17.8286 0.199023 19.9852 0.199023 22.2283V22.2783H0.249023H1.30735H1.35735V22.2283Z" fill="#003594" stroke="#003594" stroke-width="0.1"/>
</svg>
