<svg width="18" height="18" viewBox="0 0 18 18" fill="none" xmlns="http://www.w3.org/2000/svg">
<path fill-rule="evenodd" clip-rule="evenodd" d="M9 1C4.57816 1 1 4.57617 1 9C1 10.6683 1.50877 12.2115 2.4125 13.5375C2.44614 13.5874 2.4681 13.6441 2.47676 13.7037C2.48542 13.7632 2.48054 13.8239 2.4625 13.8813L1.65 16.6L4.3125 15.6813C4.36941 15.6623 4.42986 15.6564 4.48936 15.664C4.54886 15.6715 4.6059 15.6924 4.65625 15.725C5.90336 16.5342 7.39631 17 9 17C13.4239 17 17 13.4239 17 9C17 4.57605 13.4239 1 9 1Z" stroke="#BAC5D8"/>
</svg>
