<svg width="26" height="26" viewBox="0 0 26 26" fill="none" xmlns="http://www.w3.org/2000/svg">
<path id="Ic_attach" d="M4.08968 21.0109C1.53099 18.451 1.73579 15.1884 4.63775 12.2834L14.0009 2.95189C14.4747 2.47768 15.3473 1.90512 16.3746 1.72249C17.2532 1.5659 18.5602 1.63937 19.7965 2.87572C19.7977 2.8761 19.7984 2.87765 19.7992 2.87842C21.0687 4.14793 21.1814 5.40645 21.052 6.23859C20.8647 7.44601 20.1033 8.3169 19.7846 8.6353L10.3694 18.0212C10.046 18.345 9.28711 19.105 8.27987 19.1052C7.67028 19.105 7.08884 18.8329 6.55196 18.296C6.5508 18.2948 6.55061 18.2942 6.54829 18.2923C6.07158 17.8156 5.16365 16.5077 7.01248 14.6562L16.3685 5.29055C16.5812 5.07746 16.9268 5.07746 17.1399 5.29017L17.14 5.29036C17.3529 5.50326 17.3529 5.84846 17.1402 6.06155L7.78444 15.427C6.51744 16.6959 7.10813 17.3094 7.31505 17.5163C7.31795 17.5192 7.32007 17.5213 7.32257 17.5238C7.6481 17.8493 7.96977 18.014 8.27968 18.0142C8.8345 18.014 9.35037 17.4978 9.59798 17.2498L19.0137 7.86333C19.2564 7.62111 19.8359 6.96061 19.9741 6.07139C20.1057 5.2244 19.7871 4.40943 19.0276 3.65C19.0269 3.64923 19.0261 3.64846 19.0253 3.64769C18.2993 2.92161 17.4719 2.63543 16.5657 2.79684C15.787 2.93531 15.1128 3.38271 14.7719 3.72405L5.40876 13.0555C3.96665 14.4992 1.97627 17.3535 4.86107 20.2399C7.54551 22.9235 10.2097 21.3864 11.9717 19.6243L19.6943 11.8528C19.9064 11.6391 20.2518 11.6381 20.4657 11.8504C20.4661 11.8508 20.4665 11.8512 20.4669 11.8516C20.6794 12.0641 20.6798 12.4085 20.468 12.6218L12.7443 20.3945C9.79816 23.3399 6.64414 23.5646 4.08968 21.0109Z" fill="#003594"/>
</svg>
