<svg width="332" height="55" viewBox="0 0 332 55" fill="none" xmlns="http://www.w3.org/2000/svg">
<path fill-rule="evenodd" clip-rule="evenodd" d="M169.114 0H168.449V3.31947H107.347V0.256978H106.681V3.31947H86.8764V0.0329778H86.2106V3.31947H25.1322V0.0495111H24.4664V3.31947H0V3.98613H24.4664V50.9244H0V51.5911H24.4664V54.8033H25.1322V51.5911H86.2106V54.5965H86.8764V51.5911H106.681V54.905H107.347V51.5911H168.449V54.5964H169.114V51.5911H331.503V50.9244H169.114V3.98613H250.69V3.31947H169.114V0ZM107.347 50.9244H168.449V4.18584L107.347 39.6137V50.9244ZM107.347 38.8434V3.98613H167.464L107.347 38.8434ZM106.681 39.2294L86.8764 50.7128V15.7122L106.681 4.24561V39.2294ZM87.84 50.9244L106.681 39.9998V50.9244H87.84ZM86.8764 3.98613H105.8L86.8764 14.9421V3.98613ZM86.2106 3.98613V15.3276L25.1322 50.6903V3.98613H86.2106ZM86.2106 16.0977L26.058 50.9244H86.2106V16.0977Z" fill="#989795"/>
<path fill-rule="evenodd" clip-rule="evenodd" d="M205.708 10.1474C206.306 10.1474 206.733 10.0336 206.988 9.80602C207.244 9.57847 207.372 9.24958 207.372 8.81758C207.372 8.42647 207.225 8.0958 206.932 7.82558C206.639 7.55447 206.194 7.41935 205.596 7.41935C205.061 7.41935 204.614 7.56069 204.251 7.84247C203.889 8.12513 203.708 8.46647 203.708 8.87002H202.096L202.078 8.81758C202.045 8.01758 202.369 7.36602 203.053 6.86291C203.737 6.35891 204.584 6.10735 205.596 6.10735C206.688 6.10735 207.541 6.34202 208.157 6.81047C208.772 7.2798 209.079 7.94824 209.079 8.81758C209.079 9.23891 208.953 9.6238 208.7 9.97491C208.447 10.326 208.094 10.6025 207.639 10.8034C208.162 10.9874 208.561 11.2629 208.837 11.6274C209.113 11.9936 209.251 12.4407 209.251 12.9705C209.251 13.8451 208.916 14.5305 208.247 15.0247C207.577 15.5198 206.694 15.7669 205.596 15.7669C204.579 15.7669 203.706 15.5216 202.979 15.0291C202.252 14.5367 201.904 13.8247 201.932 12.8922L201.95 12.8407H203.562C203.562 13.278 203.751 13.6576 204.131 13.9802C204.51 14.3029 204.998 14.4629 205.596 14.4629C206.211 14.4629 206.688 14.3207 207.027 14.0362C207.366 13.7518 207.536 13.3962 207.536 12.9705C207.536 12.4691 207.388 12.1038 207.092 11.8736C206.796 11.6442 206.335 11.5287 205.708 11.5287H204.087V10.1474H205.708ZM214.32 14.3601C214.883 14.3601 215.398 14.225 215.863 13.9547C216.329 13.6836 216.662 13.3583 216.864 12.9787V11.4427H215.054C214.358 11.4427 213.807 11.6027 213.402 11.9263C212.997 12.2481 212.794 12.6392 212.794 13.0996C212.794 13.5085 212.92 13.8205 213.173 14.0365C213.426 14.2525 213.809 14.3601 214.32 14.3601ZM216.933 14.921C216.961 15.1227 217.002 15.3494 217.054 15.6027H219.277V14.5156L218.588 14.4205C218.576 14.305 218.569 14.1903 218.566 14.0756C218.564 13.9601 218.562 13.8418 218.562 13.721V9.22407C218.562 8.21695 218.234 7.44273 217.579 6.9014C216.924 6.36095 216.067 6.08984 215.01 6.08984C214.303 6.08984 213.648 6.19295 213.045 6.39651C212.441 6.60095 211.926 6.87295 211.501 7.21251V9.02495H212.811L212.992 8.04095C213.194 7.85162 213.457 7.7014 213.782 7.59207C214.106 7.48273 214.481 7.42762 214.907 7.42762C215.521 7.42762 216.002 7.58762 216.346 7.90673C216.691 8.22673 216.864 8.65962 216.864 9.20629V10.2943H215.114C213.867 10.2943 212.885 10.5343 212.169 11.0143C211.454 11.4952 211.096 12.1787 211.096 13.065C211.096 13.929 211.349 14.5974 211.855 15.0721C212.36 15.5467 213.099 15.785 214.07 15.785C214.628 15.785 215.152 15.6445 215.644 15.3663C216.135 15.0863 216.545 14.737 216.873 14.3165C216.884 14.5183 216.904 14.7192 216.933 14.921ZM223.864 14.2906V11.5111H226.433C227.065 11.5111 227.542 11.632 227.864 11.8738C228.186 12.1155 228.346 12.4578 228.346 12.9004C228.346 13.3493 228.186 13.6942 227.864 13.9333C227.542 14.1715 227.065 14.2906 226.433 14.2906H223.864ZM223.864 10.208H225.847C226.565 10.208 227.106 10.1013 227.471 9.88887C227.837 9.67553 228.019 9.35287 228.019 8.92175C228.019 8.4782 227.837 8.14487 227.471 7.91998C227.106 7.69598 226.562 7.58309 225.838 7.58309H223.864V10.208ZM228.7 6.90575C228.022 6.47731 227.067 6.26309 225.838 6.26309H222.165H220.76V7.35909L222.165 7.60087V14.2738L220.76 14.5155V15.6035H226.433C227.577 15.6035 228.466 15.3786 229.101 14.9298C229.736 14.4809 230.054 13.8195 230.054 12.944C230.054 12.4382 229.89 11.9875 229.562 11.5938C229.235 11.1991 228.781 10.9306 228.2 10.7866C228.683 10.6071 229.057 10.3466 229.32 10.0053C229.585 9.6622 229.717 9.27198 229.717 8.83464C229.717 7.97775 229.378 7.33509 228.7 6.90575ZM233.981 13.4887C233.564 12.8434 233.356 12.0265 233.356 11.0362V10.846C233.356 9.86824 233.563 9.05402 233.976 8.40335C234.391 7.75358 235.005 7.42735 235.822 7.42735C236.638 7.42735 237.255 7.75358 237.675 8.40335C238.094 9.05402 238.305 9.86824 238.305 10.846V11.0362C238.305 12.0265 238.094 12.8434 237.675 13.4887C237.255 14.1322 236.644 14.4549 235.839 14.4549C235.017 14.4549 234.397 14.1322 233.981 13.4887ZM231.658 10.846C231.658 9.46469 232.031 8.32691 232.779 7.4318C233.525 6.53758 234.54 6.09047 235.822 6.09047C237.109 6.09047 238.127 6.53669 238.877 7.42735C239.627 8.3198 240.003 9.46024 240.003 10.846V11.0362C240.003 12.4291 239.629 13.5687 238.882 14.4549C238.134 15.3411 237.12 15.7847 235.839 15.7847C234.545 15.7847 233.525 15.3402 232.779 14.4505C232.031 13.5616 231.658 12.4238 231.658 11.0362V10.846ZM244.77 9.7758C244.707 10.8122 244.558 11.6949 244.326 12.4256C244.093 13.1571 243.792 13.7731 243.425 14.2745H247.606V7.77313H244.847L244.77 9.7758ZM242.563 12.5429C242.31 13.1438 241.945 13.7207 241.467 14.2745H240.735L240.899 18.3482H242.424V15.6034H248.848V18.3482H250.373L250.546 14.2745H249.304V7.60069L250.709 7.35891V6.26291H249.304H241.804V7.35891L243.158 7.5918L243.071 9.7758C242.985 11.0185 242.816 11.942 242.563 12.5429ZM207.609 30.399C207.181 30.7474 206.685 30.9208 206.122 30.9208C205.225 30.9208 204.587 30.6034 204.208 29.967C203.829 29.3314 203.639 28.535 203.639 27.5803V27.2177C203.639 26.2852 203.83 25.4986 204.212 24.8568C204.595 24.215 205.231 23.8941 206.122 23.8941C206.519 23.8941 206.875 23.9546 207.191 24.0754C207.507 24.1963 207.766 24.3546 207.967 24.5501L208.337 26.0177H209.691L209.614 23.9457C209.222 23.5146 208.73 23.175 208.135 22.9279C207.54 22.6799 206.869 22.5563 206.122 22.5563C204.772 22.5563 203.736 23.0008 203.018 23.8897C202.3 24.7794 201.941 25.8888 201.941 27.2177V27.5803C201.941 28.9217 202.298 30.0346 203.014 30.9208C203.729 31.807 204.765 32.2506 206.122 32.2506C207.111 32.2506 207.977 31.9386 208.721 31.3137C209.466 30.6897 209.823 29.975 209.794 29.1688L209.777 29.1172H208.251C208.251 29.623 208.037 30.0506 207.609 30.399ZM220.183 22.729V25.5085H218.726L218.596 24.049H216.596V30.7405L218.002 30.9814V32.0694H213.493V30.9814L214.898 30.7405V24.049H212.933L212.803 25.5085H211.355V22.729H220.183ZM228.494 24.9567C228.908 25.6349 229.114 26.5069 229.114 27.5718V27.7531C229.114 28.6909 228.908 29.4536 228.494 30.0402C228.079 30.6278 227.47 30.9211 226.666 30.9211C226.166 30.9211 225.745 30.8154 225.403 30.6056C225.061 30.3958 224.783 30.098 224.571 29.7122V25.1629C224.783 24.7834 225.063 24.4838 225.407 24.2651C225.752 24.0465 226.166 23.9371 226.648 23.9371C227.465 23.9371 228.079 24.2767 228.494 24.9567ZM221.468 34.5638L222.873 34.3229V24.0669L221.468 23.8251V22.7291H224.33L224.485 23.8687C224.795 23.442 225.173 23.1167 225.619 22.8927C226.063 22.6678 226.58 22.5558 227.166 22.5558C228.321 22.5558 229.219 23.0154 229.86 23.9327C230.501 24.8509 230.821 26.0642 230.821 27.5718V27.7531C230.821 29.0998 230.499 30.186 229.856 31.0118C229.212 31.8376 228.323 32.2509 227.192 32.2509C226.617 32.2509 226.113 32.154 225.679 31.9611C225.245 31.7691 224.876 31.482 224.571 31.1025V34.3229L225.976 34.5638V35.6607H221.468V34.5638ZM234.071 27.5024C234.071 28.4926 234.28 29.3095 234.696 29.9548C235.112 30.5984 235.732 30.921 236.554 30.921C237.359 30.921 237.971 30.5984 238.39 29.9548C238.809 29.3095 239.02 28.4926 239.02 27.5024V27.3122C239.02 26.3344 238.809 25.5202 238.39 24.8695C237.971 24.2197 237.353 23.8935 236.537 23.8935C235.72 23.8935 235.106 24.2197 234.691 24.8695C234.278 25.5202 234.071 26.3344 234.071 27.3122V27.5024ZM233.494 23.8979C232.746 24.793 232.373 25.9308 232.373 27.3122V27.5024C232.373 28.8899 232.746 30.0277 233.494 30.9166C234.24 31.8064 235.26 32.2508 236.554 32.2508C237.836 32.2508 238.849 31.8073 239.597 30.921C240.344 30.0348 240.718 28.8953 240.718 27.5024V27.3122C240.718 25.9264 240.343 24.7859 239.592 23.8935C238.842 23.0028 237.824 22.5566 236.537 22.5566C235.255 22.5566 234.24 23.0037 233.494 23.8979ZM246.839 23.825V22.729H245.434H242.338V23.825L243.744 24.0667V30.7405L242.338 30.9814V32.0694H245.434L249.546 25.4392L249.597 25.4561V30.7405L248.192 30.9814V32.0694H252.701V30.9814L251.296 30.7405V24.0667L252.701 23.825V22.729H251.296H249.597L245.485 29.3583L245.434 29.3405V24.0667L246.839 23.825ZM263.038 22.729V25.5085H261.581L261.451 24.049H259.451V30.7405L260.857 30.9814V32.0694H256.348V30.9814L257.753 30.7405V24.049H255.788L255.658 25.5085H254.21V22.729H263.038ZM266.383 24.6157C266.785 24.1348 267.271 23.8939 267.84 23.8939C268.541 23.8939 269.069 24.1188 269.426 24.5677C269.782 25.0166 269.961 25.5748 269.961 26.2424V26.4673H265.659L265.641 26.4237C265.733 25.6984 265.98 25.0957 266.383 24.6157ZM268.099 32.2504C266.8 32.2504 265.766 31.8175 264.999 30.9508C264.232 30.085 263.848 28.9615 263.848 27.5802V27.2006C263.848 25.8717 264.244 24.7642 265.034 23.8806C265.824 22.9979 266.76 22.5562 267.84 22.5562C269.092 22.5562 270.042 22.9366 270.689 23.6957C271.336 24.4557 271.659 25.4682 271.659 26.7339V27.7962H265.606L265.582 27.8388C265.598 28.7366 265.825 29.4753 266.262 30.0539C266.699 30.6317 267.311 30.9206 268.099 30.9206C268.673 30.9206 269.178 30.8388 269.612 30.6753C270.045 30.5108 270.42 30.285 270.736 29.997L271.4 31.1019C271.067 31.4255 270.626 31.6966 270.077 31.9179C269.528 32.1393 268.869 32.2504 268.099 32.2504ZM276.866 24.0754V26.7171C276.866 28.5589 276.623 29.9109 276.137 30.774C275.652 31.638 274.82 32.0691 273.642 32.0691H273.159L273.185 30.6185L273.538 30.6105C274.147 30.6105 274.571 30.3145 274.81 29.7216C275.048 29.1287 275.168 28.1278 275.168 26.7171V24.0665L273.763 23.8256V22.7287H281.728H283.133V23.8256L281.728 24.0665V30.7402L283.133 30.982V32.0691H278.625V30.982L280.03 30.7402V24.0754H276.866ZM287.849 30.74V27.2698H290.159C290.768 27.2698 291.219 27.4449 291.512 27.796C291.806 28.1471 291.953 28.5586 291.953 29.0298C291.953 29.5195 291.807 29.9266 291.517 30.252C291.227 30.5773 290.774 30.74 290.159 30.74H287.849ZM289.254 22.7293V23.8253L287.849 24.0662V25.94H290.159C291.263 25.94 292.122 26.22 292.737 26.7818C293.352 27.3426 293.66 28.0724 293.66 28.9702C293.66 29.8742 293.351 30.6164 292.733 31.1978C292.115 31.7782 291.257 32.0689 290.159 32.0689H284.745V30.9818L286.151 30.74V24.0662L284.745 23.8253V22.7293H286.151H287.849H289.254ZM295.194 22.7293V23.8253L296.599 24.0662V30.74L295.194 30.9818V32.0689H299.703V30.9818L298.297 30.74V28.0982H302.444V30.74L301.039 30.9818V32.0689H305.556V30.9818L304.151 30.74V24.0662L305.556 23.8253V22.7293H304.151H302.444H301.039V23.8253L302.444 24.0662V26.7693H298.297V24.0662L299.703 23.8253V22.7293H295.194ZM316.324 30.9816L317.729 30.7407V24.0669L316.324 23.8251V22.7291H319.428V30.7407L320.834 30.9816V32.0696H316.324V30.9816ZM310.324 30.7407V27.2696H312.635C313.244 27.2696 313.695 27.4447 313.988 27.7958C314.281 28.1478 314.428 28.5585 314.428 29.0305C314.428 29.5194 314.282 29.9265 313.992 30.2527C313.702 30.5771 313.249 30.7407 312.635 30.7407H310.324ZM311.729 22.7291V23.8251L310.324 24.0669V25.9398H312.635C313.738 25.9398 314.598 26.2207 315.213 26.7816C315.827 27.3425 316.135 28.0731 316.135 28.97C316.135 29.874 315.825 30.6162 315.208 31.1976C314.59 31.778 313.732 32.0696 312.635 32.0696H307.221V30.9816L308.626 30.7407V24.0669L307.221 23.8251V22.7291H308.626H310.324H311.729ZM322.85 30.7825L321.85 30.9816V32.0696H325.523V30.9816L324.686 30.8874L326.514 28.5389L328.342 30.8874L327.514 30.9816V32.0696H331.17V30.9816L330.161 30.7825L327.42 27.3469L330.083 24.0242L331.083 23.8251V22.7291H327.402V23.8251L328.238 23.9202L326.488 26.1736L324.747 23.9282L325.592 23.8251V22.7291H321.936V23.8251L322.937 24.0242L325.601 27.3469L322.85 30.7825ZM205.467 40.5415V43.1833C205.467 45.025 205.224 46.377 204.738 47.2402C204.252 48.1042 203.421 48.5353 202.243 48.5353H201.76L201.786 47.0846L202.139 47.0766C202.748 47.0766 203.172 46.7806 203.411 46.1877C203.649 45.5948 203.769 44.5939 203.769 43.1833V40.5326L202.363 40.2917V39.1948H210.329H211.734V40.2917L210.329 40.5326V47.2064L211.734 47.4482V48.5353H207.225V47.4482L208.631 47.2064V40.5415H205.467ZM215.821 41.0818C216.223 40.601 216.708 40.3601 217.277 40.3601C217.979 40.3601 218.507 40.585 218.864 41.0338C219.22 41.4827 219.398 42.041 219.398 42.7085V42.9334H215.096L215.079 42.8898C215.171 42.1645 215.418 41.5618 215.821 41.0818ZM217.537 48.7165C216.237 48.7165 215.204 48.2836 214.437 47.417C213.67 46.5512 213.285 45.4276 213.285 44.0463V43.6667C213.285 42.3378 213.681 41.2303 214.471 40.3467C215.261 39.4641 216.197 39.0223 217.277 39.0223C218.53 39.0223 219.48 39.4027 220.126 40.1618C220.773 40.9218 221.096 41.9343 221.096 43.2001V44.2623H215.044L215.019 44.305C215.036 45.2027 215.262 45.9414 215.7 46.5201C216.137 47.0978 216.748 47.3867 217.537 47.3867C218.11 47.3867 218.615 47.305 219.049 47.1414C219.482 46.977 219.858 46.7512 220.174 46.4632L220.838 47.5681C220.504 47.8916 220.063 48.1627 219.514 48.3841C218.966 48.6054 218.306 48.7165 217.537 48.7165ZM226.959 47.3869C227.523 47.3869 228.018 47.2136 228.446 46.8651C228.874 46.5167 229.088 46.0891 229.088 45.5834H230.614L230.631 45.6349C230.66 46.4411 230.303 47.1558 229.558 47.7798C228.814 48.4047 227.948 48.7167 226.959 48.7167C225.602 48.7167 224.566 48.2731 223.851 47.3869C223.136 46.5007 222.778 45.3878 222.778 44.0465V43.6838C222.778 42.3549 223.137 41.2456 223.855 40.3558C224.574 39.4669 225.609 39.0225 226.959 39.0225C227.706 39.0225 228.377 39.146 228.972 39.394C229.567 39.6411 230.06 39.9807 230.451 40.4118L230.528 42.4838H229.175L228.804 41.0162C228.603 40.8207 228.345 40.6625 228.029 40.5416C227.712 40.4207 227.356 40.3602 226.959 40.3602C226.068 40.3602 225.432 40.6811 225.049 41.3229C224.667 41.9647 224.476 42.7514 224.476 43.6838V44.0465C224.476 45.0011 224.666 45.7976 225.045 46.4331C225.424 47.0696 226.062 47.3869 226.959 47.3869ZM233.416 40.3641C232.669 41.2592 232.295 42.397 232.295 43.7783V43.9685C232.295 45.3561 232.669 46.4938 233.416 47.3827C234.163 48.2725 235.183 48.717 236.476 48.717C237.758 48.717 238.772 48.2734 239.519 47.3872C240.267 46.501 240.64 45.3614 240.64 43.9685V43.7783C240.64 42.3925 240.265 41.2521 239.515 40.3596C238.765 39.469 237.747 39.0227 236.459 39.0227C235.178 39.0227 234.163 39.4698 233.416 40.3641ZM233.993 43.9685C233.993 44.9587 234.202 45.7756 234.618 46.421C235.035 47.0645 235.654 47.3872 236.476 47.3872C237.281 47.3872 237.893 47.0645 238.313 46.421C238.732 45.7756 238.942 44.9587 238.942 43.9685V43.7783C238.942 42.8005 238.732 41.9863 238.313 41.3356C237.893 40.6858 237.275 40.3596 236.459 40.3596C235.643 40.3596 235.028 40.6858 234.614 41.3356C234.2 41.9863 233.993 42.8005 233.993 43.7783V43.9685ZM250.201 39.838C249.523 39.4096 248.568 39.1954 247.339 39.1954H243.666H242.261V40.2914L243.666 40.5331V47.206L242.261 47.4478V48.5358H247.933C249.078 48.5358 249.967 48.3109 250.602 47.862C251.236 47.4131 251.554 46.7518 251.554 45.8762C251.554 45.3705 251.391 44.9198 251.062 44.526C250.736 44.1314 250.281 43.8629 249.701 43.7189C250.184 43.5394 250.557 43.2789 250.821 42.9376C251.086 42.5945 251.218 42.2042 251.218 41.7669C251.218 40.91 250.879 40.2674 250.201 39.838ZM245.364 44.4434V47.2229H247.933C248.565 47.2229 249.043 47.1038 249.364 46.8656C249.687 46.6265 249.847 46.2816 249.847 45.8327C249.847 45.39 249.687 45.0478 249.364 44.806C249.043 44.5642 248.565 44.4434 247.933 44.4434H245.364ZM247.347 43.1402H245.364V40.5154H247.339C248.063 40.5154 248.607 40.6282 248.972 40.8522C249.338 41.0771 249.52 41.4105 249.52 41.854C249.52 42.2851 249.338 42.6078 248.972 42.8211C248.607 43.0336 248.066 43.1402 247.347 43.1402Z" fill="#48423B"/>
<path fill-rule="evenodd" clip-rule="evenodd" d="M189.357 25.1108L185.054 27.7055L189.357 30.1321V39.3064L168.77 51.2059L148.272 39.357L157.542 33.9277L168.77 40.4193L180.024 33.9099V32.2815H165.339V22.741H180.024V20.8966L168.77 14.3917L157.563 20.8717L148.183 15.5988V15.5046L168.77 3.60059L189.357 15.5046V25.1108ZM45.3979 39.3576V39.3531L36.0647 33.9487V33.962L24.8113 40.4705L13.557 33.962V20.9478L24.8113 14.4438L36.0433 20.9345L45.3979 15.5647V15.5567L24.8113 3.65179L4.22461 15.5567V39.3576L24.8113 51.258L45.3979 39.3576ZM45.4172 15.61L66.003 3.70867L86.5887 15.61V39.4118L66.003 51.3131L45.4172 39.4118V15.61ZM77.259 34.0189L66.003 40.5256L54.7478 34.0189V21.0038L66.003 14.4971L77.259 21.0038V34.0189ZM106.97 15.61L127.555 3.70867L148.14 15.61V39.4118L127.555 51.3131L106.97 39.4118V33.3825H98.9662L98.968 44.1442L90.2597 49.1193V13.3789L98.9627 8.30512L98.9644 21.6402H106.97V15.61ZM138.811 34.0189L127.555 40.5256L116.299 34.0189V21.0038L127.555 14.4971L138.811 21.0038V34.0189Z" fill="#003594"/>
</svg>
