<svg width="16" height="20" viewBox="0 0 16 20" fill="none" xmlns="http://www.w3.org/2000/svg">
<path d="M12.8956 2.20837C9.95111 -0.736124 5.15824 -0.736124 2.21375 2.20837C0.988666 3.43345 0.21493 5.0583 0.03869 6.78631C-0.13755 8.51002 0.292304 10.2595 1.24658 11.7081C1.25088 11.7167 1.25517 11.721 1.25947 11.7296L7.13557 19.7894C7.23443 19.9226 7.38918 20 7.55253 20C7.71587 20 7.87062 19.9226 7.96948 19.7894L13.8456 11.7296C13.8499 11.721 13.8542 11.7167 13.8585 11.7081C14.8127 10.2595 15.2426 8.51432 15.0664 6.78631C14.8944 5.0626 14.1207 3.43345 12.8956 2.20837ZM13.0074 11.1321L7.55253 18.6073L2.09769 11.1321C1.27667 9.88555 0.911292 8.37677 1.06174 6.89377C1.21219 5.40218 1.87846 4.00086 2.9402 2.94342C5.48493 0.398689 9.62012 0.398689 12.1649 2.94342C13.2223 4.00086 13.8886 5.40648 14.0433 6.89377C14.1938 8.37677 13.8241 9.88125 13.0074 11.1321Z" fill="#003594"/>
<path d="M7.55297 3.88086C5.82066 3.88086 4.41504 5.29078 4.41504 7.01879C4.41504 8.7468 5.82496 10.1567 7.55297 10.1567C9.28098 10.1567 10.6909 8.7468 10.6909 7.01879C10.6909 5.29078 9.28528 3.88086 7.55297 3.88086ZM7.55297 9.12507C6.39236 9.12507 5.44669 8.17939 5.44669 7.01879C5.44669 5.85818 6.39236 4.91251 7.55297 4.91251C8.71357 4.91251 9.65925 5.85818 9.65925 7.01879C9.65925 8.17939 8.71357 9.12507 7.55297 9.12507Z" fill="#003594"/>
</svg>
