<svg width="24" height="21" viewBox="0 0 24 21" fill="none" xmlns="http://www.w3.org/2000/svg">
<path fill-rule="evenodd" clip-rule="evenodd" d="M21.6174 0.205821C20.6722 0.468635 9.99676 3.55728 1.30445 6.05441C0.612549 6.27355 0.112678 6.83405 0.0145913 7.45012C-0.0834951 8.06618 0.325082 8.59489 0.87532 8.74968C1.3452 8.89335 6.05627 10.2531 6.05627 10.2531L6.19627 18.1428L11.0682 15.2727L7.22352 9.62747L16.8 6.20455L8.74616 11.4121L11.0682 14.8813C11.2044 15.0575 14.0467 19.3857 14.251 19.6501C14.5915 20.0907 15.1117 20.9496 15.4332 20.9941C15.9957 21.0718 16.6808 20.3795 17.1058 19.2578C17.5185 18.213 20.3149 10.9655 23.9055 1.30924C24.3182 0.264463 23.3471 -0.342031 21.6174 0.205821Z" fill="#73D1EF"/>
</svg>
