<svg width="20" height="19" viewBox="0 0 20 19" fill="none" xmlns="http://www.w3.org/2000/svg">
<path d="M13.9819 0H5.26813C2.43216 0 0.125 2.30716 0.125 5.14313V13.857C0.125 16.6928 2.43216 19 5.26813 19H13.982C16.8178 19 19.125 16.6928 19.125 13.857V5.14313C19.125 2.30716 16.8178 0 13.9819 0ZM9.625 14.6952C6.76033 14.6952 4.42983 12.3647 4.42983 9.5C4.42983 6.63533 6.76033 4.30483 9.625 4.30483C12.4897 4.30483 14.8202 6.63533 14.8202 9.5C14.8202 12.3647 12.4897 14.6952 9.625 14.6952ZM14.9444 5.53002C14.0978 5.53002 13.4093 4.84147 13.4093 3.99491C13.4093 3.14835 14.0978 2.45966 14.9444 2.45966C15.791 2.45966 16.4797 3.14835 16.4797 3.99491C16.4797 4.84147 15.791 5.53002 14.9444 5.53002Z" fill="url(#paint0_linear)"/>
<path d="M9.62428 5.41797C7.37394 5.41797 5.54297 7.24879 5.54297 9.49928C5.54297 11.7496 7.37394 13.5806 9.62428 13.5806C11.8748 13.5806 13.7056 11.7496 13.7056 9.49928C13.7056 7.24879 11.8748 5.41797 9.62428 5.41797Z" fill="url(#paint1_linear)"/>
<path d="M14.9447 3.57352C14.7125 3.57352 14.5234 3.76254 14.5234 3.99477C14.5234 4.22699 14.7125 4.41602 14.9447 4.41602C15.1771 4.41602 15.3661 4.22713 15.3661 3.99477C15.3661 3.7624 15.1771 3.57352 14.9447 3.57352Z" fill="url(#paint2_linear)"/>
<defs>
<linearGradient id="paint0_linear" x1="3" y1="19" x2="19" y2="6" gradientUnits="userSpaceOnUse">
<stop stop-color="#F9AF0D"/>
<stop offset="1" stop-color="#970BDD"/>
</linearGradient>
<linearGradient id="paint1_linear" x1="3" y1="19" x2="19" y2="6" gradientUnits="userSpaceOnUse">
<stop stop-color="#F9AF0D"/>
<stop offset="1" stop-color="#970BDD"/>
</linearGradient>
<linearGradient id="paint2_linear" x1="3" y1="19" x2="19" y2="6" gradientUnits="userSpaceOnUse">
<stop stop-color="#F9AF0D"/>
<stop offset="1" stop-color="#970BDD"/>
</linearGradient>
</defs>
</svg>
