<svg width="22" height="22" viewBox="0 0 22 22" fill="none" xmlns="http://www.w3.org/2000/svg">
<path fill-rule="evenodd" clip-rule="evenodd" d="M11 0C4.91998 0 0 4.91724 0 11C0 13.294 0.699562 15.4159 1.94219 17.2391C1.98844 17.3076 2.01864 17.3857 2.03054 17.4675C2.04245 17.5494 2.03575 17.6328 2.01094 17.7117L0.89375 21.45L4.55469 20.1867C4.63294 20.1607 4.71605 20.1525 4.79787 20.163C4.87969 20.1734 4.95811 20.202 5.02734 20.2469C6.74212 21.3595 8.79493 22 11 22C17.0829 22 22 17.0829 22 11C22 4.91707 17.0829 0 11 0ZM6.49688 4.79531L8.49922 8.10392L7.66563 8.92892C7.58076 9.01455 7.52638 9.12569 7.51085 9.24525C7.49532 9.36481 7.51951 9.48616 7.57969 9.59062C8.85179 11.7935 10.359 13.5074 12.4695 14.4375C12.5707 14.4824 12.683 14.4958 12.7919 14.4759C12.9007 14.4559 13.001 14.4036 13.0797 14.3258L13.9648 13.4406L17.1961 15.4602C16.8383 16.2654 16.3719 16.7449 15.8383 17.0242C15.2202 17.3478 14.4654 17.4091 13.6039 17.2305C11.881 16.8732 9.79986 15.5191 8.10391 13.7844C6.40795 12.0496 5.09552 9.94023 4.76094 8.2242C4.59365 7.3662 4.66755 6.62728 4.98438 6.04142C5.25717 5.53699 5.72054 5.10513 6.49688 4.79531Z" fill="#7BD88F"/>
</svg>
