<svg width="24" height="18" viewBox="0 0 24 18" fill="none" xmlns="http://www.w3.org/2000/svg">
<path d="M23.5623 3.44098C23.3694 1.75683 22.1364 0.470593 20.3985 0.359002C12.8862 -0.119667 11.1136 -0.119667 3.59978 0.359002C1.86339 0.470593 0.630424 1.75536 0.437491 3.44098C-0.14583 8.56832 -0.14583 9.43168 0.437491 14.559C0.628916 16.2446 1.86339 17.5294 3.60129 17.641C11.1136 18.1197 12.8862 18.1197 20.4 17.641C22.1364 17.5309 23.3709 16.2446 23.5638 14.559C24.1456 9.43168 24.1456 8.56979 23.5623 3.44098ZM17.0312 9.44343L10.5318 13.2596C10.363 13.3565 10.1279 13.3594 9.95602 13.2654C9.7857 13.1715 9.64703 13.007 9.64703 12.8147V5.1868C9.64703 4.99445 9.7857 4.83147 9.95602 4.73603C10.1279 4.64206 10.3434 4.645 10.5122 4.7419L17.0192 8.55804C17.182 8.65348 17.2814 8.81499 17.2814 9.00147C17.2814 9.18794 17.194 9.34799 17.0312 9.44343Z" fill="#E44B4B"/>
</svg>
